<svg width="84" height="16" viewBox="0 0 84 16" fill="none" xmlns="http://www.w3.org/2000/svg">
<path d="M7.55163 0.908492C7.73504 0.536869 8.26496 0.53687 8.44837 0.908493L10.2348 4.52821C10.3076 4.67578 10.4484 4.77807 10.6113 4.80173L14.6059 5.38218C15.016 5.44177 15.1797 5.94576 14.883 6.23503L11.9925 9.05258C11.8746 9.16745 11.8208 9.33295 11.8487 9.49515L12.531 13.4736C12.6011 13.8821 12.1724 14.1935 11.8055 14.0007L8.23267 12.1223C8.08701 12.0457 7.91299 12.0457 7.76733 12.1223L4.19445 14.0007C3.82764 14.1935 3.39892 13.8821 3.46898 13.4736L4.15134 9.49515C4.17916 9.33295 4.12538 9.16745 4.00754 9.05258L1.11702 6.23503C0.820263 5.94576 0.984019 5.44177 1.39413 5.38218L5.38873 4.80173C5.55158 4.77807 5.69236 4.67578 5.76519 4.52821L7.55163 0.908492Z" fill="#FBCC42"/>
<path d="M24.5516 0.908492C24.735 0.536869 25.265 0.53687 25.4484 0.908493L27.2348 4.52821C27.3076 4.67578 27.4484 4.77807 27.6113 4.80173L31.6059 5.38218C32.016 5.44177 32.1797 5.94576 31.883 6.23503L28.9925 9.05258C28.8746 9.16745 28.8208 9.33295 28.8487 9.49515L29.531 13.4736C29.6011 13.8821 29.1724 14.1935 28.8055 14.0007L25.2327 12.1223C25.087 12.0457 24.913 12.0457 24.7673 12.1223L21.1945 14.0007C20.8276 14.1935 20.3989 13.8821 20.469 13.4736L21.1513 9.49515C21.1792 9.33295 21.1254 9.16745 21.0075 9.05258L18.117 6.23503C17.8203 5.94576 17.984 5.44177 18.3941 5.38218L22.3887 4.80173C22.5516 4.77807 22.6924 4.67578 22.7652 4.52821L24.5516 0.908492Z" fill="#FBCC42"/>
<path d="M41.5516 0.908492C41.735 0.536869 42.265 0.53687 42.4484 0.908493L44.2348 4.52821C44.3076 4.67578 44.4484 4.77807 44.6113 4.80173L48.6059 5.38218C49.016 5.44177 49.1797 5.94576 48.883 6.23503L45.9925 9.05258C45.8746 9.16745 45.8208 9.33295 45.8487 9.49515L46.531 13.4736C46.6011 13.8821 46.1724 14.1935 45.8055 14.0007L42.2327 12.1223C42.087 12.0457 41.913 12.0457 41.7673 12.1223L38.1945 14.0007C37.8276 14.1935 37.3989 13.8821 37.469 13.4736L38.1513 9.49515C38.1792 9.33295 38.1254 9.16745 38.0075 9.05258L35.117 6.23503C34.8203 5.94576 34.984 5.44177 35.3941 5.38218L39.3887 4.80173C39.5516 4.77807 39.6924 4.67578 39.7652 4.52821L41.5516 0.908492Z" fill="#FBCC42"/>
<path d="M58.5516 0.908492C58.735 0.536869 59.265 0.53687 59.4484 0.908493L61.2348 4.52821C61.3076 4.67578 61.4484 4.77807 61.6113 4.80173L65.6059 5.38218C66.016 5.44177 66.1797 5.94576 65.883 6.23503L62.9925 9.05258C62.8746 9.16745 62.8208 9.33295 62.8487 9.49515L63.531 13.4736C63.6011 13.8821 63.1724 14.1935 62.8055 14.0007L59.2327 12.1223C59.087 12.0457 58.913 12.0457 58.7673 12.1223L55.1945 14.0007C54.8276 14.1935 54.3989 13.8821 54.469 13.4736L55.1513 9.49515C55.1792 9.33295 55.1254 9.16745 55.0075 9.05258L52.117 6.23503C51.8203 5.94576 51.984 5.44177 52.3941 5.38218L56.3887 4.80173C56.5516 4.77807 56.6924 4.67578 56.7652 4.52821L58.5516 0.908492Z" fill="#FBCC42"/>
<path d="M75.5516 0.908492C75.735 0.536869 76.265 0.53687 76.4484 0.908493L78.2348 4.52821C78.3076 4.67578 78.4484 4.77807 78.6113 4.80173L82.6059 5.38218C83.016 5.44177 83.1797 5.94576 82.883 6.23503L79.9925 9.05258C79.8746 9.16745 79.8208 9.33295 79.8487 9.49515L80.531 13.4736C80.6011 13.8821 80.1724 14.1935 79.8055 14.0007L76.2327 12.1223C76.087 12.0457 75.913 12.0457 75.7673 12.1223L72.1945 14.0007C71.8276 14.1935 71.3989 13.8821 71.469 13.4736L72.1513 9.49515C72.1792 9.33295 72.1254 9.16745 72.0075 9.05258L69.117 6.23503C68.8203 5.94576 68.984 5.44177 69.3941 5.38218L73.3887 4.80173C73.5516 4.77807 73.6924 4.67578 73.7652 4.52821L75.5516 0.908492Z" fill="#FBCC42"/>
</svg>
